<?xml version="1.0" encoding="UTF-8"?>
<svg id="YOUR_ARTWORKS_HERE" data-name="YOUR ARTWORKS HERE" xmlns="http://www.w3.org/2000/svg" viewBox="0 0 4926.67 2282.47">
  <defs>
    <style>
      .cls-1, .cls-2 {
        fill: #1d1d1b;
        stroke: #1d1d1b;
        stroke-width: 7px;
      }

      .cls-3 {
        fill: #bca655;
      }

      .cls-4 {
        fill: #285c4c;
      }

      .cls-2 {
        stroke-miterlimit: 10;
      }
    </style>
  </defs>
  <g id="ESPECIALISTAS">
    <path class="cls-1" d="M3186.57,2274.13v4.18h-102.56v-154.05h99.26v4.18h-94.85v69.54h84.95v4.19h-84.95v71.96h98.16Z"/>
    <path class="cls-1" d="M3255.01,2272.92c-9.84-4.02-17.38-9.28-22.67-15.72l3.08-2.87c4.99,5.87,12.11,10.75,21.35,14.64,9.24,3.88,19.08,5.83,29.49,5.83,15.99,0,28.06-3.19,36.2-9.58,8.14-6.38,12.21-14.63,12.21-24.75,0-7.93-2.13-14.23-6.38-18.92-4.26-4.7-9.5-8.21-15.74-10.57-6.24-2.35-14.64-4.76-25.2-7.26-11.3-2.79-20.24-5.47-26.84-8.04-6.6-2.57-12.21-6.53-16.84-11.89-4.63-5.35-6.94-12.5-6.94-21.46,0-7.03,1.83-13.49,5.5-19.37,3.67-5.86,9.38-10.55,17.16-14.08,7.78-3.52,17.4-5.29,28.83-5.29,8.21,0,16.29,1.29,24.21,3.86,7.92,2.57,14.73,5.98,20.46,10.23l-2.42,3.52c-6.02-4.41-12.73-7.74-20.14-10.02-7.4-2.27-14.71-3.4-21.9-3.4-15.4,0-27.14,3.26-35.21,9.79-8.07,6.53-12.1,14.85-12.1,24.98,0,7.92,2.13,14.27,6.38,19.03,4.25,4.78,9.54,8.33,15.84,10.67,6.3,2.35,14.82,4.85,25.53,7.49,11.15,2.78,20.04,5.47,26.64,8.04,6.6,2.57,12.17,6.45,16.72,11.65,4.55,5.22,6.83,12.21,6.83,21.03,0,7.04-1.91,13.49-5.72,19.37-3.82,5.86-9.66,10.53-17.5,13.97-7.84,3.45-17.64,5.17-29.37,5.17s-21.65-2.01-31.47-6.05Z"/>
    <path class="cls-1" d="M3495.55,2137.58c10.71,8.87,16.06,21.31,16.06,37.3s-5.35,28.43-16.06,37.3c-10.71,8.88-25.53,13.31-44.45,13.31h-47.76v52.82h-4.41v-154.05h52.17c18.92,0,33.74,4.43,44.45,13.31Zm-2.76,71.63c9.61-8.06,14.42-19.51,14.42-34.33s-4.81-26.26-14.42-34.33c-9.61-8.07-23.37-12.11-41.26-12.11h-48.19v92.87h48.19c17.9,0,31.65-4.04,41.26-12.11Z"/>
    <path class="cls-1" d="M3673.37,2274.13v4.18h-102.55v-154.05h99.26v4.18h-94.86v69.54h84.95v4.19h-84.95v71.96h98.16Z"/>
    <path class="cls-1" d="M3757,2268.84c-12.02-6.75-21.49-16.02-28.38-27.83-6.9-11.81-10.35-25.05-10.35-39.72s3.45-27.92,10.35-39.72c6.89-11.81,16.36-21.09,28.38-27.84,12.04-6.75,25.46-10.12,40.27-10.12,10.42,0,20.14,1.66,29.17,4.96,9.01,3.31,16.75,8.18,23.21,14.64l-2.64,3.08c-12.91-12.32-29.49-18.48-49.74-18.48-13.93,0-26.59,3.22-37.96,9.68-11.38,6.45-20.32,15.29-26.85,26.52-6.53,11.22-9.79,23.65-9.79,37.3s3.26,26.08,9.79,37.3c6.53,11.22,15.47,20.07,26.85,26.52,11.37,6.46,24.02,9.68,37.96,9.68,20.11,0,36.68-6.23,49.74-18.71l2.64,3.08c-6.46,6.46-14.23,11.38-23.33,14.75-9.1,3.38-18.78,5.06-29.05,5.06-14.82,0-28.24-3.37-40.27-10.12Z"/>
    <path class="cls-1" d="M3908.85,2124.26h4.41v154.05h-4.41v-154.05Z"/>
    <path class="cls-1" d="M4083.15,2231.88h-94.19l-21.56,46.43h-5.06l71.53-154.05h4.39l71.53,154.05h-5.06l-21.58-46.43Zm-1.98-4.18l-45.11-97.5-45.12,97.5h90.23Z"/>
    <path class="cls-1" d="M4158.86,2124.26h4.39v149.87h91.77v4.18h-96.16v-154.05Z"/>
    <path class="cls-1" d="M4304.32,2124.26h4.41v154.05h-4.41v-154.05Z"/>
    <path class="cls-1" d="M4391.25,2272.92c-9.84-4.02-17.38-9.28-22.67-15.72l3.08-2.87c4.99,5.87,12.11,10.75,21.35,14.64,9.24,3.88,19.08,5.83,29.49,5.83,15.99,0,28.06-3.19,36.2-9.58,8.14-6.38,12.21-14.63,12.21-24.75,0-7.93-2.13-14.23-6.38-18.92-4.26-4.7-9.5-8.21-15.74-10.57-6.24-2.35-14.64-4.76-25.2-7.26-11.3-2.79-20.24-5.47-26.84-8.04-6.6-2.57-12.21-6.53-16.84-11.89-4.63-5.35-6.94-12.5-6.94-21.46,0-7.03,1.83-13.49,5.5-19.37,3.67-5.86,9.38-10.55,17.16-14.08,7.78-3.52,17.4-5.29,28.83-5.29,8.21,0,16.29,1.29,24.21,3.86,7.92,2.57,14.73,5.98,20.46,10.23l-2.42,3.52c-6.02-4.41-12.73-7.74-20.14-10.02-7.4-2.27-14.71-3.4-21.9-3.4-15.4,0-27.14,3.26-35.21,9.79-8.07,6.53-12.1,14.85-12.1,24.98,0,7.92,2.13,14.27,6.38,19.03,4.25,4.78,9.54,8.33,15.84,10.67,6.3,2.35,14.82,4.85,25.53,7.49,11.15,2.78,20.04,5.47,26.64,8.04,6.6,2.57,12.17,6.45,16.72,11.65,4.55,5.22,6.83,12.21,6.83,21.03,0,7.04-1.91,13.49-5.72,19.37-3.82,5.86-9.66,10.53-17.5,13.97-7.84,3.45-17.64,5.17-29.37,5.17s-21.65-2.01-31.47-6.05Z"/>
    <path class="cls-1" d="M4561.81,2128.44h-57.23v-4.18h118.85v4.18h-57.23v149.87h-4.39v-149.87Z"/>
    <path class="cls-1" d="M4757.23,2231.88h-94.19l-21.56,46.43h-5.06l71.53-154.05h4.39l71.53,154.05h-5.06l-21.58-46.43Zm-1.98-4.18l-45.11-97.5-45.12,97.5h90.23Z"/>
    <path class="cls-1" d="M4839.1,2272.92c-9.84-4.02-17.38-9.28-22.67-15.72l3.08-2.87c4.99,5.87,12.11,10.75,21.35,14.64,9.24,3.88,19.08,5.83,29.49,5.83,15.99,0,28.06-3.19,36.2-9.58,8.14-6.38,12.21-14.63,12.21-24.75,0-7.93-2.13-14.23-6.38-18.92-4.26-4.7-9.5-8.21-15.74-10.57-6.24-2.35-14.64-4.76-25.2-7.26-11.3-2.79-20.24-5.47-26.84-8.04-6.6-2.57-12.21-6.53-16.84-11.89-4.63-5.35-6.94-12.5-6.94-21.46,0-7.03,1.83-13.49,5.5-19.37,3.67-5.86,9.38-10.55,17.16-14.08,7.78-3.52,17.4-5.29,28.83-5.29,8.21,0,16.29,1.29,24.21,3.86,7.92,2.57,14.73,5.98,20.46,10.23l-2.42,3.52c-6.02-4.41-12.73-7.74-20.14-10.02-7.4-2.27-14.71-3.4-21.9-3.4-15.4,0-27.14,3.26-35.21,9.79-8.07,6.53-12.1,14.85-12.1,24.98,0,7.92,2.13,14.27,6.38,19.03,4.25,4.78,9.54,8.33,15.84,10.67,6.3,2.35,14.82,4.85,25.53,7.49,11.15,2.78,20.04,5.47,26.64,8.04,6.6,2.57,12.17,6.45,16.72,11.65,4.55,5.22,6.83,12.21,6.83,21.03,0,7.04-1.91,13.49-5.72,19.37-3.82,5.86-9.66,10.53-17.5,13.97-7.84,3.45-17.64,5.17-29.37,5.17s-21.65-2.01-31.47-6.05Z"/>
  </g>
  <g id="DE">
    <path class="cls-1" d="M2655.37,2124.26h58.31c15.99,0,30.11,3.3,42.36,9.9,12.25,6.6,21.79,15.77,28.62,27.51,6.82,11.74,10.23,24.94,10.23,39.62s-3.41,27.88-10.23,39.62c-6.83,11.74-16.37,20.91-28.62,27.51-12.25,6.6-26.38,9.9-42.36,9.9h-58.31v-154.05Zm57.87,149.87c15.41,0,28.94-3.12,40.61-9.36,11.67-6.23,20.69-14.89,27.07-25.97,6.39-11.07,9.58-23.58,9.58-37.51s-3.19-26.45-9.58-37.53c-6.38-11.08-15.4-19.72-27.07-25.97-11.67-6.23-25.19-9.35-40.61-9.35h-53.48v145.69h53.48Z"/>
    <path class="cls-1" d="M2959.95,2274.13v4.18h-102.56v-154.05h99.26v4.18h-94.85v69.54h84.95v4.19h-84.95v71.96h98.16Z"/>
  </g>
  <g id="INTEGRAL">
    <path class="cls-1" d="M1318.15,2123.38h4.41v154.52h-4.41v-154.52Z"/>
    <path class="cls-1" d="M1523,2123.38v154.52h-3.75l-113.24-146.35v146.35h-4.41v-154.52h3.75l113.24,146.35v-146.35h4.41Z"/>
    <path class="cls-1" d="M1630.93,2127.57h-57.39v-4.19h119.2v4.19h-57.39v150.32h-4.41v-150.32Z"/>
    <path class="cls-1" d="M1846.15,2273.7v4.19h-102.87v-154.52h99.55v4.19h-95.14v69.75h85.2v4.19h-85.2v72.18h98.45Z"/>
    <path class="cls-1" d="M2022.52,2202.18h4.19v56.51c-6.48,6.48-14.31,11.41-23.51,14.79-9.2,3.39-19.1,5.08-29.69,5.08-15.16,0-28.81-3.38-40.95-10.15-12.14-6.77-21.67-16.08-28.58-27.93-6.92-11.84-10.38-25.13-10.38-39.84s3.46-28,10.38-39.84c6.91-11.85,16.44-21.15,28.58-27.92,12.14-6.77,25.79-10.16,40.95-10.16,10.74,0,20.67,1.65,29.8,4.97,9.12,3.31,16.92,8.2,23.4,14.68l-2.65,3.09c-12.95-12.36-29.8-18.54-50.55-18.54-14.13,0-26.97,3.24-38.52,9.71-11.55,6.48-20.6,15.34-27.15,26.6-6.55,11.26-9.82,23.73-9.82,37.42s3.27,26.15,9.82,37.41c6.55,11.26,15.59,20.13,27.15,26.6,11.55,6.48,24.39,9.71,38.52,9.71,20.45,0,36.79-5.81,49-17.44v-54.74Z"/>
    <path class="cls-1" d="M2210.8,2277.9l-39.29-54.52c-5.16,1.03-11.18,1.55-18.1,1.55h-47.9v52.98h-4.41v-154.52h52.31c18.98,0,33.85,4.46,44.59,13.36,10.74,8.91,16.11,21.38,16.11,37.42,0,12.36-3.31,22.7-9.93,31.01-6.62,8.32-15.97,14.02-28.03,17.11l40.17,55.62h-5.52Zm-56.95-57.17c17.95,0,31.75-4.05,41.39-12.14,9.64-8.09,14.46-19.57,14.46-34.43s-4.82-26.34-14.46-34.44c-9.64-8.09-23.44-12.14-41.39-12.14h-48.34v93.15h48.34Z"/>
    <path class="cls-1" d="M2373.26,2231.32h-94.47l-21.63,46.57h-5.08l71.74-154.52h4.41l71.74,154.52h-5.08l-21.63-46.57Zm-1.99-4.19l-45.25-97.79-45.25,97.79h90.5Z"/>
    <path class="cls-1" d="M2451.61,2123.38h4.41v150.32h92.05v4.19h-96.46v-154.52Z"/>
  </g>
  <g id="CENTRO">
    <path class="cls-2" d="M212.66,2268.19c-12.03-6.75-21.5-16.02-28.39-27.83-6.9-11.81-10.35-25.05-10.35-39.72s3.44-27.92,10.35-39.72c6.89-11.81,16.36-21.09,28.39-27.84,12.03-6.75,25.46-10.12,40.27-10.12,10.42,0,20.14,1.66,29.16,4.96,9.02,3.31,16.76,8.18,23.22,14.64l-2.64,3.08c-12.91-12.32-29.49-18.48-49.74-18.48-13.94,0-26.6,3.22-37.96,9.68-11.37,6.45-20.32,15.29-26.85,26.52-6.53,11.22-9.8,23.65-9.8,37.3s3.27,26.08,9.8,37.3c6.53,11.22,15.47,20.07,26.85,26.52,11.37,6.46,24.02,9.68,37.96,9.68,20.1,0,36.68-6.23,49.74-18.71l2.64,3.08c-6.46,6.46-14.23,11.38-23.33,14.75-9.1,3.38-18.78,5.06-29.05,5.06-14.82,0-28.24-3.37-40.27-10.12Z"/>
    <path class="cls-2" d="M469.49,2273.48v4.18h-102.56v-154.05h99.26v4.18h-94.86v69.54h84.95v4.19h-84.95v71.96h98.16Z"/>
    <path class="cls-2" d="M655.23,2123.61v154.05h-3.74l-112.9-145.9v145.9h-4.4v-154.05h3.74l112.9,145.9v-145.9h4.4Z"/>
    <path class="cls-2" d="M762.85,2127.79h-57.22v-4.18h118.84v4.18h-57.22v149.87h-4.4v-149.87Z"/>
    <path class="cls-2" d="M984.23,2277.66l-39.17-54.36c-5.14,1.03-11.15,1.54-18.05,1.54h-47.76v52.82h-4.4v-154.05h52.16c18.92,0,33.74,4.43,44.45,13.31,10.71,8.87,16.07,21.31,16.07,37.3,0,12.32-3.3,22.64-9.9,30.92-6.6,8.29-15.92,13.97-27.95,17.05l40.05,55.46h-5.5Zm-56.78-57c17.9,0,31.65-4.04,41.26-12.11,9.61-8.06,14.42-19.51,14.42-34.33s-4.81-26.26-14.42-34.33c-9.61-8.07-23.37-12.11-41.26-12.11h-48.2v92.87h48.2Z"/>
    <path class="cls-2" d="M1075.13,2268.19c-12.03-6.75-21.5-16.02-28.39-27.83-6.9-11.81-10.35-25.05-10.35-39.72s3.44-27.92,10.35-39.72c6.89-11.81,16.36-21.09,28.39-27.84,12.03-6.75,25.46-10.12,40.27-10.12s28.24,3.38,40.27,10.12c12.03,6.76,21.49,16.04,28.39,27.84,6.9,11.81,10.34,25.05,10.34,39.72s-3.44,27.92-10.34,39.72c-6.9,11.81-16.36,21.09-28.39,27.83-12.03,6.76-25.46,10.12-40.27,10.12s-28.24-3.37-40.27-10.12Zm78.24-3.63c11.37-6.38,20.32-15.19,26.85-26.41,6.53-11.22,9.79-23.72,9.79-37.51s-3.27-26.3-9.79-37.53c-6.53-11.22-15.49-20.02-26.85-26.41-11.37-6.38-24.02-9.56-37.96-9.56s-26.6,3.19-37.96,9.56c-11.37,6.39-20.32,15.19-26.85,26.41-6.53,11.22-9.8,23.74-9.8,37.53s3.27,26.29,9.8,37.51c6.53,11.22,15.47,20.04,26.85,26.41,11.37,6.39,24.02,9.58,37.96,9.58s26.59-3.19,37.96-9.58Z"/>
  </g>
  <g id="AUNA">
    <path class="cls-4" d="M886.88,1675.45l-85.17,234.37-135.4-.73,354.68-891.17,133.73-.54,355.42,892.51-133.19,1.31-89.24-235.75h-400.81Zm203.13-501.22h-2.87c-20.38,55.34-152.52,393.58-152.52,393.58h306.71l-151.32-393.58Z"/>
    <path class="cls-4" d="M2066.9,1922.51c-180.51,2.06-371.55-100.41-371.55-373.79v-519.33h130.19l1.91,500.7c.07,17.36,.78,34.76,2.88,52,21.33,174.75,126.3,220.68,236.56,219.61h.24c110.26,1.07,215.24-44.86,236.57-219.61,2.1-17.24,2.82-34.64,2.88-52l1.91-500.7h130.19v519.33c0,273.39-191.05,375.85-371.56,373.79h-.23Z"/>
    <path class="cls-4" d="M2843.03,1236.94l-.82,673.6h-122.41v-880.74h122.32l501.56,647.62-.2-647.62h133.7v879.53l-132.37,1-501.78-673.39Z"/>
    <path class="cls-4" d="M3948.06,1681.97l-85.17,234.37-135.4-.73,354.68-891.17,133.73-.54,355.42,892.51-133.84,1.77-88.58-236.22h-400.81Zm203.13-501.22h-2.87c-20.38,55.34-152.52,393.58-152.52,393.58h306.71l-151.32-393.58Z"/>
  </g>
  <path class="cls-3" d="M0,1848.9s297.54-37.55,473.69-630.42c176.14-592.87,468.28-635.83,468.28-635.83,0,0,353.28-120.28,541.31,313.62,184.98,426.87,137.48,1009.59,137.48,1009.59h-26.32s-13.72-1001.92-410.15-1206.27c-41.14-21.21-87.55-30.58-133.57-25.67-78.99,8.43-207.27,52.33-305.16,232.39-123.58,227.3-179.47,393.58-211.37,481.56-9.36,25.81-61.81,140.47-76.04,163.95-59.7,98.59-227.05,331.6-458.15,297.07Z"/>
  <path class="cls-3" d="M1062.18,478.95c5.56-40.94,13.32-73.72,19.83-97.15,6.23-22.45,11.31-36.31,19.83-51.26,5.53-9.72,15.43-26.79,32.85-41.92,5.88-5.1,20.78-17.07,77.63-34.13,18.42-5.53,43.3-12.2,73.39-17.98-39.12-7.1-72.09-14.62-97.9-21.1-19.76-4.96-35.86-9.45-53.12-21.95-3.71-2.69-18.4-13.66-31.72-33.99-11.89-18.14-16.4-34.12-26.34-83.27-4.46-22.03-9.34-47.45-14.32-75.79l-.12-.41-.12,.32c-4.98,28.34-9.87,53.77-14.33,75.8-9.94,49.15-14.45,65.13-26.34,83.27-13.32,20.33-28.01,31.3-31.72,33.99-17.26,12.5-33.36,16.99-53.12,21.95-25.81,6.48-58.78,14-97.9,21.1,30.09,5.78,54.97,12.46,73.39,17.98,56.85,17.06,71.76,29.03,77.63,34.13,17.43,15.13,27.32,32.2,32.85,41.92,8.51,14.96,13.59,28.81,19.83,51.26,6.5,23.42,14.26,56.21,19.83,97.15"/>
</svg>